<svg xmlns="http://www.w3.org/2000/svg" viewBox="0 0 433 433">
  <defs>
    <style>
      .a, .g, .h, .j {
        fill: none;
      }

      .a, .c, .d, .e, .f, .g, .h {
        stroke: #000;
      }

      .a, .b, .c, .d, .e, .f, .g, .h {
        stroke-miterlimit: 10;
      }

      .a, .b {
        stroke-width: 6px;
      }

      .b {
        fill: #ed1e79;
        stroke: #333;
      }

      .c, .d {
        fill: #fff;
      }

      .c {
        stroke-width: 3px;
      }

      .d {
        stroke-width: 2px;
      }

      .e {
        stroke-width: 1px;
      }

      .f {
        stroke-width: 1.94px;
      }

      .g {
        stroke-width: 4px;
      }

      .h {
        stroke-width: 8px;
      }

      .i {
        font-size: 100px;
        font-family: Herculanum, Herculanum;
      }
    </style>
  </defs>
  <title>SITAsset 3</title>
  <g>
    <path class="a" d="M302.48,302c0-35.27,114,13.2,108.1-63.8"/>
    <path class="a" d="M288.33,237c0-35.27,48.35-63.8,108.1-63.8"/>
    <path class="a" d="M154.57,237c0-35.27-48.35-63.8-108.1-63.8"/>
    <path class="a" d="M140,302c0-35.27-114,13.2-108.1-63.8"/>
    <ellipse class="b" cx="220.98" cy="307.16" rx="81.5" ry="121"/>
    <circle class="c" cx="220.96" cy="159.4" r="70.24"/>
    <circle class="d" cx="191.09" cy="147.28" r="12.12"/>
    <circle class="e" cx="193.53" cy="142.84" r="2.56"/>
    <circle class="f" cx="216.5" cy="186.16" r="10"/>
    <circle class="d" cx="244.59" cy="147.28" r="12.12"/>
    <circle class="e" cx="241.53" cy="143.84" r="2.56"/>
    <path class="g" d="M179,103.08c0-51.36-12.64-92.93-28.26-92.93"/>
    <path class="g" d="M265,104.08c0-45.84,8.95-82.93,20-82.93"/>
    <rect class="c" x="139.71" y="4.16" width="12" height="12" rx="6" ry="6"/>
    <rect class="c" x="285.2" y="15.16" width="12" height="12" rx="6" ry="6"/>
    <rect class="a" x="18.94" y="159.4" width="27" height="27" rx="12" ry="12"/>
    <rect class="a" x="18.17" y="213.76" width="27" height="27" rx="12" ry="12"/>
    <path class="h" d="M186.71,417"/>
    <path class="h" d="M183,413.55c-45.77-224.6-49.77-15.76-53.77-2.76"/>
    <rect class="a" x="101.66" y="398.11" width="27" height="27" rx="12" ry="12" transform="translate(-221.84 148.71) rotate(-36.41)"/>
    <text class="i" transform="translate(203.21 335.16)">S</text>
    <rect class="j" width="433" height="433"/>
    <rect class="a" x="396.95" y="159.4" width="27" height="27" rx="12" ry="12" transform="translate(820.9 345.8) rotate(-180)"/>
    <rect class="a" x="397.3" y="213.76" width="27" height="27" rx="12" ry="12" transform="translate(821.6 454.52) rotate(-180)"/>
    <path class="h" d="M261.51,412.63c45.77-224.6,49.77-15.76,53.77-2.76"/>
    <rect class="a" x="315.86" y="397.2" width="27" height="27" rx="12" ry="12" transform="translate(350.65 936.72) rotate(-143.59)"/>
  </g>
</svg>
